<svg version="1.2" xmlns="http://www.w3.org/2000/svg" viewBox="0 0 62 42" width="62" height="42">
	<title>open-book</title>
	<style>
		.s0 { fill: #000000 } 
	</style>
	<g>
		<g>
			<g>
				<path class="s0" d="m31 39.8c-0.4 0-0.8-0.1-1.1-0.5-6.7-7.4-13-9-17.1-9-2.9 0-4.8 0.8-4.8 0.8-0.4 0.2-1 0.2-1.4-0.1-0.4-0.3-0.7-0.7-0.7-1.3v-26.3c0-0.5 0.3-1 0.7-1.3 0.2-0.1 3.5-2.1 8.4-2.1 4.2 0 10.6 1.5 17.1 8.8 0.3 0.3 0.4 0.6 0.4 1v28.5c0 0.7-0.4 1.2-1 1.4q-0.2 0.1-0.5 0.1zm-18.2-12.5c4.2 0 10.2 1.4 16.7 7.4v-24.3c-4.5-4.9-9.4-7.4-14.5-7.4-2.9 0-5 0.8-6.1 1.3v23.4c1-0.2 2.3-0.4 3.9-0.4z"/>
				<path class="s0" d="m31 39.8q-0.3 0-0.5-0.1c-0.6-0.2-1-0.7-1-1.4v-28.5c0-0.4 0.1-0.7 0.4-1 6.5-7.3 12.9-8.8 17.1-8.8 4.9 0 8.2 2 8.4 2.1 0.4 0.3 0.7 0.8 0.7 1.3v26.3c0 0.6-0.3 1-0.7 1.3-0.4 0.3-1 0.3-1.4 0.1 0 0-1.9-0.8-4.8-0.8-4.1 0-10.4 1.6-17.1 9-0.3 0.4-0.7 0.5-1.1 0.5zm1.5-29.4v24.3c6.5-6 12.5-7.4 16.7-7.4 1.6 0 2.9 0.2 3.9 0.4v-23.4c-1.1-0.5-3.3-1.3-6.1-1.3-5.1 0-10 2.5-14.5 7.4z"/>
			</g>
			<path class="s0" d="m60 42c-0.4 0-0.8-0.2-1.1-0.5-0.4-0.4-11.3-11.3-27 0.2-0.5 0.4-1.3 0.4-1.8 0-15.7-11.5-26.6-0.6-27-0.2-0.4 0.5-1.1 0.6-1.7 0.4-0.5-0.2-0.9-0.8-0.9-1.4v-30.2q0-0.3 0.2-0.6c0.1-0.3 1.3-2.6 3.6-3.3 0.9-0.2 2.3-0.3 4 0.8 0.6 0.4 0.8 1.4 0.4 2.1-0.5 0.6-1.4 0.8-2.1 0.4-0.8-0.6-1.3-0.4-1.5-0.4-0.7 0.2-1.3 1-1.6 1.4v26.7c4.5-3.1 14.7-7.6 27.5 1.3 12.8-8.9 23-4.4 27.5-1.3v-26.7c-0.3-0.4-0.9-1.2-1.6-1.4-0.2 0-0.7-0.2-1.5 0.4-0.7 0.4-1.6 0.2-2.1-0.4-0.4-0.7-0.2-1.7 0.4-2.1 1.7-1.1 3.1-1 4-0.8 2.3 0.7 3.5 3 3.7 3.3q0.1 0.3 0.1 0.6v30.2c0 0.6-0.4 1.2-0.9 1.4q-0.3 0.1-0.6 0.1z"/>
		</g>
	</g>
</svg>